<svg width="15" height="50" fill="none" xmlns="http://www.w3.org/2000/svg"><path fill-rule="evenodd" clip-rule="evenodd" d="M8.959 30.593l-6.042 5.795 1.507 1.48 1.507 1.48-1.462 1.314-1.461 1.314 4.395 4.212c2.418 2.317 4.395 4.291 4.394 4.388 0 .097-2.57.232-5.712.3L.375 51l-4.688-4.466L-9 42.068l1.403-1.38 1.402-1.38-1.395-1.372-1.396-1.373 6.032-5.8-3.968-5.802 4.047-5.725C-6.15 16.087-8.83 13.35-8.83 13.154c0-.196.562-.879 1.247-1.517l1.247-1.16-1.247-1.227c-.685-.675-1.247-1.376-1.247-1.559 0-.182 1.963-2.213 4.362-4.512L-.105-1h12.071l-4.53 4.36-4.529 4.36 1.429 1.372 1.429 1.373L4.33 11.81l-1.435 1.345 6.052 5.821L15 24.797l-6.041 5.796z" fill="#BF2A09"/></svg>