<svg width="34" height="35" fill="none" xmlns="http://www.w3.org/2000/svg"><path d="M29.41 14.653c.041-4.922-4.151-9.435-9.346-10.059a7.549 7.549 0 01-.335-.05 4.858 4.858 0 00-.792-.087c-1.065 0-1.35.748-1.424 1.194-.073.434-.004.798.206 1.083.353.48.973.565 1.471.633.146.02.284.039.4.065 4.667 1.043 6.24 2.683 7.007 7.31.019.114.027.253.037.4.033.554.103 1.705 1.34 1.705.103 0 .214-.009.33-.026 1.152-.175 1.116-1.228 1.098-1.733-.005-.142-.01-.277.003-.367a.517.517 0 00.005-.068z" fill="#7F40BD"/><path d="M18.635 2.785c.138.01.269.02.378.037C26.678 4 30.203 7.632 31.18 15.357c.016.131.019.291.021.46.01.604.03 1.86 1.379 1.886h.042c.422 0 .759-.127 1-.379.42-.439.39-1.091.366-1.615-.005-.129-.011-.25-.01-.356.098-7.9-6.74-15.065-14.634-15.331a.547.547 0 00-.096.005.664.664 0 01-.093.005c-.08 0-.176-.007-.279-.014C18.752.01 18.611 0 18.47 0c-1.257 0-1.496.893-1.527 1.426-.07 1.231 1.12 1.318 1.693 1.36zM30.81 25.34a24.126 24.126 0 01-.49-.38c-.836-.674-1.727-1.295-2.588-1.896l-.535-.373c-1.103-.775-2.095-1.152-3.031-1.152-1.262 0-2.362.697-3.27 2.072-.403.61-.89.906-1.492.906-.356 0-.76-.101-1.201-.302-3.56-1.614-6.102-4.09-7.556-7.357-.703-1.579-.475-2.611.762-3.451.702-.477 2.01-1.364 1.917-3.064-.105-1.93-4.363-7.736-6.157-8.395-.76-.28-1.558-.282-2.376-.007C2.73 2.634 1.25 3.852.513 5.462c-.714 1.556-.682 3.382.092 5.283C2.843 16.238 5.99 21.027 9.957 24.98c3.884 3.87 8.657 7.038 14.187 9.42.499.214 1.021.331 1.403.417.13.029.243.054.325.076a.541.541 0 00.137.02h.044c2.601 0 5.725-2.377 6.684-5.087.84-2.372-.694-3.545-1.927-4.488zM19.785 9.06c-.445.01-1.372.034-1.697.978-.152.44-.134.824.054 1.138.276.461.805.602 1.287.68 1.744.28 2.64 1.245 2.82 3.036.083.835.645 1.419 1.367 1.419a1.5 1.5 0 00.163-.01c.868-.104 1.29-.742 1.251-1.897.014-1.205-.617-2.574-1.69-3.664-1.076-1.093-2.374-1.709-3.555-1.68z" fill="#7F40BD"/></svg>