<svg width="34" height="34" fill="none" xmlns="http://www.w3.org/2000/svg"><path d="M17.004 0h-.008C7.622 0 0 7.625 0 17a16.87 16.87 0 003.236 9.964L1.118 33.28l6.534-2.09A16.853 16.853 0 0017.004 34C26.378 34 34 26.373 34 17c0-9.373-7.622-17-16.996-17z" fill="#4CAF50"/><path d="M26.896 24.006c-.41 1.158-2.038 2.119-3.336 2.4-.888.188-2.048.34-5.954-1.28-4.996-2.07-8.213-7.146-8.464-7.476-.24-.33-2.019-2.688-2.019-5.127 0-2.44 1.24-3.628 1.738-4.138.41-.418 1.088-.61 1.739-.61.21 0 .4.011.57.02.499.02.75.05 1.079.839.41.988 1.409 3.428 1.528 3.678.12.251.242.591.072.92-.16.34-.3.491-.55.78-.251.29-.49.51-.74.82-.23.27-.489.56-.2 1.059.29.489 1.288 2.118 2.758 3.427 1.898 1.69 3.437 2.23 3.987 2.459.41.17.899.13 1.198-.19.38-.41.85-1.09 1.329-1.759.34-.48.769-.54 1.22-.37.458.16 2.887 1.36 3.387 1.61.499.25.828.369.95.58.119.21.119 1.198-.292 2.358z" fill="#FAFAFA"/></svg>