<svg width="1616" height="921" fill="none" xmlns="http://www.w3.org/2000/svg"><g opacity=".2" fill="#0A0A0A"><rect x="238" y="73" width="5" height="12" rx="2.5"/><rect x="880" y="909" width="5" height="12" rx="2.5"/><rect x="301" y="753" width="5" height="12" rx="2.5"/><rect x="213" y="601" width="5" height="12" rx="2.5"/><rect x="572" width="5" height="12" rx="2.5"/><rect x="401" y="398" width="4" height="9" rx="2"/><rect x="149" y="302" width="4" height="9" rx="2"/><rect y="176" width="4" height="9" rx="2"/><rect x="29" y="673" width="5" height="9" rx="2.5"/><rect x="633" y="816" width="5" height="9" rx="2.5"/><rect x="808" y="176" width="5" height="9" rx="2.5"/><rect width="5" height="12" rx="2.5" transform="matrix(-1 0 0 1 1378 73)"/><rect width="5" height="12" rx="2.5" transform="matrix(-1 0 0 1 1315 753)"/><rect width="5" height="12" rx="2.5" transform="matrix(-1 0 0 1 1403 601)"/><rect width="5" height="12" rx="2.5" transform="matrix(-1 0 0 1 1044 0)"/><rect width="4" height="9" rx="2" transform="matrix(-1 0 0 1 1215 398)"/><rect width="4" height="9" rx="2" transform="matrix(-1 0 0 1 1467 302)"/><rect width="4" height="9" rx="2" transform="matrix(-1 0 0 1 1616 176)"/><rect width="5" height="9" rx="2.5" transform="matrix(-1 0 0 1 1587 673)"/><rect width="5" height="9" rx="2.5" transform="matrix(-1 0 0 1 810 710)"/><rect width="5" height="9" rx="2.5" transform="matrix(-1 0 0 1 983 816)"/></g></svg>