<svg width="420" height="294" fill="none" xmlns="http://www.w3.org/2000/svg"><path d="M84.47 488.441c-21.231-79.234.22-167.819 50.998-243.047 50.776-75.224 130.849-137.045 226.78-162.75 2.896-.776 6.426-1.766 10.516-2.913 32.048-8.99 98.49-27.628 164.286-28.569 37.094-.53 73.934 4.568 104.268 20.155 30.315 15.578 54.16 41.645 65.277 83.131 2.22 8.286 4.374 16.224 6.438 23.832 8.311 30.628 15.176 55.931 19.135 77.269 4.942 26.64 5.331 46.998-1.598 63.743-6.921 16.727-21.186 29.943-45.774 42.201-24.595 12.261-59.457 23.532-107.482 36.4-96.052 25.737-217.216 56.45-315.458 76.645-49.124 10.098-92.5 17.563-124.135 20.463-15.822 1.45-28.678 1.756-37.84.688-4.582-.534-8.207-1.409-10.808-2.635-2.6-1.225-4.11-2.769-4.604-4.613z" stroke="#EF421A"/></svg>