<svg width="1920" height="1070" fill="none" xmlns="http://www.w3.org/2000/svg"><path d="M1814.57-260.471c43.28 247.633-46.27 512.123-221.6 727.818-175.32 215.692-436.37 382.548-736.009 434.919-9.031 1.579-20.052 3.638-32.825 6.025-100.108 18.707-307.826 57.522-508.781 42.528-113.294-8.454-224.39-34.008-312.823-89.876-88.413-55.855-154.201-142.026-176.881-271.789-4.518-25.848-8.928-50.617-13.156-74.364-17.023-95.616-31.096-174.659-37.378-240.818-7.843-82.59-3.53-144.999 22.274-194.433C-176.814 30.12-129.492-6.421-51.1-37.159 27.298-67.9 136.706-92.811 286.586-119.007 586.348-171.4 964.022-232.151 1268.98-267.06c152.48-17.454 286.77-28.446 384.04-28.705 48.64-.129 87.99 2.426 115.73 8.189 13.88 2.881 24.81 6.559 32.54 11.082 7.74 4.523 12.2 9.852 13.28 16.023z" stroke="#EF421A"/></svg>