<svg version="1.0" xmlns="http://www.w3.org/2000/svg" width="1557.333" height="1557.333" viewBox="0 0 1168 1168"><path d="M559.8 27.3C545.6 41.7 534 53.8 534 54.2c0 .5-.4.8-.9.8-.4 0-5.5 4.8-11.2 10.6-35 35.5-58.2 59.1-74.1 75.1L429.7 159l-19.3-19.3c-10.7-10.5-19.8-19.3-20.3-19.5-.5-.2-2.6 1.6-4.8 3.9-5 5.5-16.3 17.7-23.5 25.3-3.2 3.4-5.8 6.4-5.8 6.8 0 .5-.5.8-1.1.8-.7 0-26.7-25.7-58-57-31.2-31.4-57.4-57-58.3-57-1 0-1.6 1-1.7 2.7-.1 1.6-.3 4.1-.4 5.8-1 9.2-2.3 41.6-3 73.5-.2 10.7-.7 30.3-1 43.5l-.5 24 22.1 22.5c12.1 12.4 37.9 38.7 57.2 58.4 40.6 41.5 40.8 41.6 41.7 41.6.4 0 8.7-7.9 18.5-17.5 9.7-9.7 18.1-17.7 18.5-17.8.5-.1 8.9 7.8 18.8 17.5 9.8 9.8 18.2 17.8 18.6 17.8.6 0 16.9-16.4 110.3-110.8l46.8-47.3 6.7 6.8c78.9 79.8 132.9 133.1 146.3 144.4 2.2 1.9 4.6 4 5.3 4.6 1 1 1.9 1 3.5.2 4-2.1 13.1-10.2 23.8-21.2l10.6-10.9 11.6 11.5c6.4 6.3 11.7 11.3 11.7 11.1 0-.2 1.2.8 2.8 2.3 1.5 1.4 4.5 3.8 6.8 5.4l4.1 2.8 3.5-2.4c5.3-3.6 13.8-11.6 42.3-39.7 14.3-14.2 26.1-25.8 26.2-25.8.2 0 2-1.9 4.2-4.3 2.1-2.3 12.5-12.9 23-23.6l19.1-19.4v-78.8c0-43.4-.2-78.9-.5-78.9s-17.8 17.4-38.8 38.6c-21 21.2-47.3 47.8-58.5 59L818 159.1l-18.5-18.7c-20.7-20.9-18.3-19.8-25.9-11.5-2.3 2.4-9.8 10.2-16.7 17.4l-12.5 12.9-27.2-27.3c-23.9-24.2-66.1-66.8-114.1-115.4C594.7 8 587.3 1 586.6 1c-.6 0-12.7 11.9-26.8 26.3z"/><path d="M626.1 723.1v444.4l57.8-58.4 57.8-58.4.1-243.6c0-134 .1-244.4.1-245.5.1-1.3 6.5 4.4 20.4 18.3l20.2 20.1 3-3.3c1.7-1.8 5.9-6.6 9.5-10.7 10.4-12.1 20.3-21 21.4-19.2 1.3 2.2 2.2 23.9 3.1 80.6.3 18 .8 33.2 1.1 33.7.3.5.1.9-.4.9-.4 0-.5 2.4-.2 5.2.4 2.9.4 5.4 0 5.6-.4.1-.4 2.2-.1 4.5.3 2.3.6 64.6.6 138.4 0 73.9.1 134.3.4 134.3.2 0 14.5-14.3 31.8-31.8 17.3-17.4 43.1-43.4 57.3-57.8l26-26.1V278.5l-40.3 40.7C785.5 430.7 784 432.1 782.6 431.3c-3.9-2.3-41.8-38.9-102.1-98.7-25.8-25.7-48.6-48.3-50.7-50.3l-3.7-3.6v444.4zM236.9 282.2c-2 26.8-3.1 157.2-4.1 489.8l-.2 77.5 60.1 60.4c45.8 46.1 60.1 59.9 60.4 58.5.2-1 .4-57.9.3-126.2V717.8l13.3-13.1c7.3-7.3 13.8-13.4 14.3-13.5.6-.2 1-.8 1-1.3 0-1.1 7.2-7.8 8.4-7.9.5 0 9.6 8.7 20.1 19.4l19.1 19.4.1 18.4c.1 10.1.4 58.3.8 107.3s.8 114.5 1 145.7c.2 48.9.5 57.1 1.8 59 .8 1.3 14.9 15.8 31.2 32.3 64 64.8 81.5 82.4 82.3 82.9.4.2.7-107.8.7-240.1V685.7l-21-21.3c-11.6-11.8-29.7-30.2-40.3-41l-19.3-19.7 2.5-2.6c2.6-2.7 33.8-34.5 62.1-63.3l16.1-16.3-.2-92.5c-.2-88.3-.5-112.4-1.9-136-.7-11.4-1-12.4-3-11.3-4.3 2.5-45.5 43-98.3 96.7l-12.4 12.5v4.9c.1 2.7.2 5.3.3 5.8.1.5 0 1.3-.1 1.9-.2 1.4-.2 28.7 0 30 .1.5.2 1.2.1 1.5-.1.3-.3 8.5-.4 18.2l-.2 17.7-38.2 38.5c-21.1 21.1-38.6 38.7-39.1 39-.4.2-.8-34.1-.8-76.3v-76.8l-29-29.2c-52.5-53-85.2-85.1-86.8-85.1-.3 0-.6.6-.7 1.2z"/></svg>