<svg width="20" height="21" fill="none" xmlns="http://www.w3.org/2000/svg"><path d="M17.3 8.619c.024-2.896-2.442-5.55-5.498-5.917a4.454 4.454 0 01-.197-.03 2.858 2.858 0 00-.466-.05c-.626 0-.793.44-.837.701-.043.256-.002.47.12.638.208.282.573.332.867.372.085.012.167.023.234.038 2.746.614 3.67 1.578 4.123 4.3.01.067.015.149.02.236.02.325.061 1.002.79 1.002.06 0 .125-.005.193-.015.678-.103.657-.722.646-1.02a1.502 1.502 0 01.005-.255z" fill="#0A0A0A"/><path d="M10.962 1.638c.081.006.158.012.222.022 4.509.693 6.582 2.83 7.157 7.373.01.078.011.172.013.272.006.355.017 1.093.81 1.109h.025c.249 0 .447-.075.588-.223.247-.259.23-.642.216-.95-.003-.076-.006-.148-.006-.21C20.045 4.384 16.022.17 11.38.013c-.02 0-.038 0-.057.003a.39.39 0 01-.055.003c-.046 0-.103-.004-.163-.008C11.03.006 10.948 0 10.864 0c-.74 0-.88.526-.898.839-.041.724.659.775.996.8zm7.161 13.268a13.987 13.987 0 01-.287-.224 27.567 27.567 0 00-1.523-1.115l-.315-.22c-.649-.455-1.232-.677-1.783-.677-.742 0-1.39.41-1.924 1.22-.236.358-.523.532-.877.532-.21 0-.447-.06-.707-.178-2.094-.95-3.59-2.405-4.444-4.327-.414-.93-.28-1.536.448-2.03.413-.281 1.182-.803 1.128-1.803-.062-1.135-2.567-4.55-3.622-4.938a2.056 2.056 0 00-1.398-.004C1.606 1.55.735 2.266.301 3.213c-.42.915-.4 1.99.055 3.107 1.316 3.232 3.167 6.05 5.501 8.375 2.285 2.276 5.092 4.14 8.345 5.54.294.127.601.196.826.246.076.017.142.032.19.045a.323.323 0 00.082.012h.025c1.53 0 3.368-1.398 3.932-2.992.494-1.396-.408-2.086-1.134-2.64zm-6.485-9.577c-.262.006-.807.02-.998.575-.09.26-.079.485.032.67.162.27.473.354.756.4 1.027.164 1.554.732 1.66 1.786.048.49.38.834.804.834a.79.79 0 00.095-.006c.511-.06.759-.436.737-1.115.008-.71-.363-1.514-.994-2.156-.634-.643-1.397-1.005-2.092-.988z" fill="#0A0A0A"/></svg>