<svg width="20" height="20" fill="none" xmlns="http://www.w3.org/2000/svg"><path d="M10.002 0h-.005C4.485 0 0 4.485 0 10c0 2.188.705 4.215 1.904 5.861L.658 19.576 4.5 18.347A9.913 9.913 0 0010.002 20C15.517 20 20 15.514 20 10S15.516 0 10.002 0z" fill="#0A0A0A"/><path d="M15.821 14.12c-.24.682-1.198 1.247-1.962 1.412-.523.111-1.205.2-3.503-.752-2.938-1.218-4.83-4.204-4.978-4.398-.142-.194-1.188-1.581-1.188-3.016s.729-2.134 1.023-2.434c.24-.246.64-.359 1.022-.359.124 0 .235.006.335.011.294.013.441.03.635.494.241.581.829 2.016.899 2.164.071.147.142.347.042.541-.093.2-.176.289-.323.459-.148.17-.288.3-.435.482-.135.16-.288.33-.118.623.17.287.758 1.246 1.623 2.016 1.116.994 2.02 1.312 2.345 1.447.24.1.528.076.705-.112.223-.241.5-.641.78-1.035.2-.282.453-.317.718-.217.27.094 1.7.8 1.993.946.294.148.487.218.559.341.07.124.07.705-.172 1.388z" fill="#FAFAFA"/></svg>