<svg width="1839" height="916" fill="none" xmlns="http://www.w3.org/2000/svg"><path d="M1838.5-66c0 251.387-133.75 496.508-343.6 678.796C1285.07 795.082 999.18 914.5 695 914.5c-9.168 0-20.379.131-33.372.283-101.833 1.191-313.133 3.664-508.506-45.706-110.147-27.833-215.184-72.134-292.677-142.393C-217.031 656.44-267 560.229-267 428.5c0-131.884 1.275-232.877 12.689-310.201 11.413-77.318 32.954-130.887 73.417-167.993 40.472-37.114 99.953-57.831 187.417-69.256C93.983-130.375 209.34-132.5 361.5-132.5c124.751 0 260.425-1.534 397.308-3.081 197.046-2.227 396.592-4.482 569.672-2.232 146.64 1.906 274.25 7.047 365.19 18.176 45.47 5.565 81.74 12.625 106.64 21.513 12.45 4.445 22.02 9.335 28.46 14.7 6.45 5.36 9.73 11.153 9.73 17.424z" stroke="#EF421A"/></svg>