<svg width="300" height="497" fill="none" xmlns="http://www.w3.org/2000/svg"><path fill-rule="evenodd" clip-rule="evenodd" d="M117.733 33.808L84.299 67.616l-8.537-8.43-8.54-8.433-7.581 8.18-7.582 8.178L27.76 42.513C14.394 28.983 3.003 17.918 2.446 17.923c-.558.003-1.336 14.387-1.73 31.964L0 81.844l25.766 26.232 25.765 26.231 7.96-7.849 7.96-7.85 7.919 7.81 7.918 7.809 33.467-33.754 33.468-33.754 33.032 33.314c18.166 18.322 33.956 33.315 35.087 33.315 1.129 0 5.069-3.141 8.752-6.978l6.697-6.978 7.075 6.978c3.892 3.837 7.938 6.978 8.992 6.978 1.054 0 12.769-10.984 26.03-24.408L300 84.53V16.976l-25.155 25.347-25.156 25.348-7.915-7.995-7.916-7.995-7.765 8.031-7.765 8.03-33.582-33.871L151.167 0l-33.434 33.808zM.631 240.323L.258 361.23l25.713 25.845 25.714 25.843V305.316l7.914-7.806 7.917-7.805 8.342 8.424 8.344 8.425.503 70.128.502 70.128 24.625 24.868 24.625 24.868V291.651l-17.203-17.454-17.203-17.455 17.203-17.454 17.203-17.454v-51.209c0-28.164-.68-51.209-1.51-51.209s-11.915 10.536-24.634 23.415l-23.125 23.415v33.862l-16.752 16.83-16.751 16.829v-65.65l-24.17-24.35c-13.294-13.393-24.697-24.351-25.341-24.351-.643 0-1.338 54.407-1.543 120.907zm167.328 67.166v189.017l24.635-24.818 24.634-24.818V238.002l8.707 8.63 8.707 8.63 6.279-7.221c3.453-3.97 7.073-7.22 8.044-7.22 1.013 0 1.766 36.638 1.766 86.047v86.048l24.635-24.818L300 363.28V118.467l-32.466 32.741-32.464 32.742-6.459-5.846c-3.551-3.212-18.649-17.946-33.554-32.737l-27.098-26.892v189.014z" fill="#FAFAFB"/></svg>